# This file uses centimeters as units for non-parametric coordinates.

mtllib plate.mtl
g default
v 2.650939 9.066308 14.488403
v 2.586850 9.066308 14.362622
v 2.487030 9.066308 14.262802
v 2.361249 9.066308 14.198713
v 2.221820 9.066308 14.176630
v 2.082390 9.066308 14.198713
v 1.956609 9.066308 14.262802
v 1.856789 9.066308 14.362622
v 1.792700 9.066308 14.488403
v 1.770617 9.066308 14.627833
v 1.792700 9.066308 14.767262
v 1.856789 9.066308 14.893043
v 1.956609 9.066308 14.992863
v 2.082390 9.066308 15.056952
v 2.221820 9.066308 15.079035
v 2.361249 9.066308 15.056952
v 2.487030 9.066308 14.992863
v 2.586850 9.066308 14.893043
v 2.650939 9.066308 14.767262
v 2.673022 9.066308 14.627833
v 2.616913 9.089257 14.499459
v 2.557906 9.089257 14.383651
v 2.466001 9.089257 14.291746
v 2.350193 9.089257 14.232739
v 2.221820 9.089257 14.212407
v 2.093446 9.089257 14.232739
v 1.977638 9.089257 14.291746
v 1.885733 9.089257 14.383651
v 1.826726 9.089257 14.499459
v 1.806394 9.089257 14.627833
v 1.826726 9.089257 14.756206
v 1.885733 9.089257 14.872014
v 1.977638 9.089257 14.963919
v 2.093446 9.089257 15.022926
v 2.221820 9.089257 15.043259
v 2.350193 9.089257 15.022926
v 2.466001 9.089257 14.963919
v 2.557906 9.089257 14.872014
v 2.616913 9.089257 14.756206
v 2.637245 9.089257 14.627833
v 2.221820 9.066308 14.627833
v 2.221820 9.074376 14.627833
v 2.650939 9.084731 14.488403
v 2.673022 9.084731 14.627833
v 2.650939 9.084731 14.767262
v 2.586850 9.084731 14.893043
v 2.487030 9.084731 14.992863
v 2.361249 9.084731 15.056952
v 2.221820 9.084731 15.079035
v 2.082390 9.084731 15.056952
v 1.956609 9.084731 14.992863
v 1.856789 9.084731 14.893043
v 1.792700 9.084731 14.767262
v 1.770617 9.084731 14.627833
v 1.792700 9.084731 14.488403
v 1.856789 9.084731 14.362622
v 1.956609 9.084731 14.262802
v 2.082390 9.084731 14.198713
v 2.221820 9.084731 14.176630
v 2.361249 9.084731 14.198713
v 2.487030 9.084731 14.262802
v 2.586850 9.084731 14.362622
v 2.528774 9.074376 14.404817
v 2.444835 9.074376 14.320878
v 2.339066 9.074376 14.266986
v 2.221820 9.074376 14.248416
v 2.104574 9.074376 14.266986
v 1.998804 9.074376 14.320879
v 1.914865 9.074376 14.404817
v 1.860973 9.074376 14.510587
v 1.842403 9.074376 14.627833
v 1.860973 9.074376 14.745079
v 1.914865 9.074376 14.850848
v 1.998804 9.074376 14.934787
v 2.104574 9.074376 14.988679
v 2.221820 9.074376 15.007249
v 2.339066 9.074376 14.988679
v 2.444835 9.074376 14.934787
v 2.528774 9.074376 14.850848
v 2.582666 9.074376 14.745079
v 2.601236 9.074376 14.627833
v 2.582666 9.074376 14.510587
vt 0.648603 0.107966
vt 0.626409 0.064408
vt 0.591842 0.029841
vt 0.548284 0.007647
vt 0.500000 -0.000000
vt 0.451716 0.007647
vt 0.408159 0.029841
vt 0.373591 0.064409
vt 0.351397 0.107966
vt 0.343750 0.156250
vt 0.351397 0.204534
vt 0.373591 0.248091
vt 0.408159 0.282659
vt 0.451716 0.304853
vt 0.500000 0.312500
vt 0.548284 0.304853
vt 0.591841 0.282659
vt 0.626409 0.248091
vt 0.648603 0.204534
vt 0.656250 0.156250
vt 0.375000 0.312500
vt 0.387500 0.312500
vt 0.400000 0.312500
vt 0.412500 0.312500
vt 0.425000 0.312500
vt 0.437500 0.312500
vt 0.450000 0.312500
vt 0.462500 0.312500
vt 0.475000 0.312500
vt 0.487500 0.312500
vt 0.500000 0.312500
vt 0.512500 0.312500
vt 0.525000 0.312500
vt 0.537500 0.312500
vt 0.550000 0.312500
vt 0.562500 0.312500
vt 0.575000 0.312500
vt 0.587500 0.312500
vt 0.600000 0.312500
vt 0.612500 0.312500
vt 0.625000 0.312500
vt 0.375000 0.688440
vt 0.387500 0.688440
vt 0.400000 0.688440
vt 0.412500 0.688440
vt 0.425000 0.688440
vt 0.437500 0.688440
vt 0.450000 0.688440
vt 0.462500 0.688440
vt 0.475000 0.688440
vt 0.487500 0.688440
vt 0.500000 0.688440
vt 0.512500 0.688440
vt 0.525000 0.688440
vt 0.537500 0.688440
vt 0.550000 0.688440
vt 0.562500 0.688440
vt 0.575000 0.688440
vt 0.587500 0.688440
vt 0.600000 0.688440
vt 0.612500 0.688440
vt 0.625000 0.688440
vt 0.648603 0.795466
vt 0.626409 0.751908
vt 0.591842 0.717341
vt 0.548284 0.695147
vt 0.500000 0.687500
vt 0.451716 0.695147
vt 0.408159 0.717341
vt 0.373591 0.751909
vt 0.351397 0.795466
vt 0.343750 0.843750
vt 0.351397 0.892034
vt 0.373591 0.935591
vt 0.408159 0.970159
vt 0.451716 0.992353
vt 0.500000 1.000000
vt 0.548284 0.992353
vt 0.591841 0.970159
vt 0.626409 0.935591
vt 0.648603 0.892034
vt 0.656250 0.843750
vt 0.500000 0.150000
vt 0.500000 0.837500
vt 0.625000 0.518546
vt 0.375000 0.518546
vt 0.612500 0.518546
vt 0.600000 0.518546
vt 0.587500 0.518546
vt 0.575000 0.518546
vt 0.562500 0.518546
vt 0.550000 0.518546
vt 0.537500 0.518546
vt 0.525000 0.518546
vt 0.512500 0.518546
vt 0.500000 0.518546
vt 0.487500 0.518546
vt 0.475000 0.518546
vt 0.462500 0.518546
vt 0.450000 0.518546
vt 0.437500 0.518546
vt 0.425000 0.518546
vt 0.412500 0.518546
vt 0.400000 0.518546
vt 0.387500 0.518546
vt 0.569283 0.891262
vt 0.550337 0.910208
vt 0.526464 0.922372
vt 0.500000 0.926564
vt 0.473536 0.922372
vt 0.449663 0.910208
vt 0.430717 0.891262
vt 0.418553 0.867389
vt 0.414362 0.840925
vt 0.418553 0.814462
vt 0.430717 0.790589
vt 0.449663 0.771643
vt 0.473536 0.759479
vt 0.500000 0.755287
vt 0.526464 0.759479
vt 0.550337 0.771643
vt 0.569283 0.790589
vt 0.581447 0.814462
vt 0.585638 0.840925
vt 0.581447 0.867389
vn 0.951057 0.000000 -0.309016
vn 0.809017 0.000000 -0.587785
vn 0.454113 0.827602 -0.329933
vn 0.533842 0.827603 -0.173455
vn 0.587785 0.000000 -0.809017
vn 0.329933 0.827602 -0.454114
vn 0.309017 0.000000 -0.951057
vn 0.173456 0.827602 -0.533842
vn -0.000000 0.000000 -1.000000
vn -0.000000 0.827603 -0.561315
vn -0.309017 0.000000 -0.951057
vn -0.173456 0.827602 -0.533842
vn -0.587785 0.000000 -0.809017
vn -0.329933 0.827602 -0.454113
vn -0.809017 0.000000 -0.587785
vn -0.454114 0.827602 -0.329933
vn -0.951057 0.000000 -0.309017
vn -0.533843 0.827602 -0.173456
vn -1.000000 0.000000 0.000000
vn -0.561315 0.827602 0.000000
vn -0.951056 0.000000 0.309017
vn -0.533842 0.827602 0.173456
vn -0.809017 0.000000 0.587785
vn -0.454113 0.827602 0.329933
vn -0.587785 -0.000001 0.809017
vn -0.329933 0.827602 0.454113
vn -0.309017 -0.000001 0.951057
vn -0.173456 0.827602 0.533842
vn 0.000000 -0.000000 1.000000
vn 0.000000 0.827602 0.561315
vn 0.309017 0.000000 0.951056
vn 0.173456 0.827602 0.533842
vn 0.587785 0.000000 0.809017
vn 0.329933 0.827602 0.454113
vn 0.809017 -0.000001 0.587785
vn 0.454113 0.827602 0.329933
vn 0.951056 -0.000002 0.309017
vn 0.533843 0.827602 0.173456
vn 1.000000 -0.000001 0.000001
vn 0.561315 0.827602 0.000001
vn 0.000000 -1.000000 0.000000
vn 0.000000 -1.000000 0.000000
vn 0.000000 -1.000000 0.000000
vn 0.000000 -1.000000 0.000000
vn 0.000000 -1.000000 0.000000
vn 0.000000 -1.000000 0.000000
vn 0.000000 -1.000000 0.000000
vn 0.000000 -1.000000 0.000000
vn 0.000000 -1.000000 0.000000
vn 0.000000 -1.000000 0.000000
vn 0.000000 -1.000000 0.000000
vn 0.000000 -1.000000 0.000000
vn 0.000000 -1.000000 0.000000
vn 0.000000 -1.000000 0.000000
vn 0.000000 -1.000000 0.000000
vn 0.000000 -1.000000 0.000000
vn 0.000000 -1.000000 0.000000
vn 0.000000 -1.000000 0.000000
vn 0.000000 -1.000000 0.000000
vn 0.000000 -1.000000 0.000000
vn 0.000000 -1.000000 0.000000
vn -0.071430 0.997176 0.023209
vn -0.060762 0.997176 0.044146
vn 0.000000 1.000000 -0.000000
vn -0.044146 0.997176 0.060762
vn -0.023209 0.997176 0.071430
vn -0.000000 0.997176 0.075106
vn 0.023209 0.997176 0.071430
vn 0.044146 0.997176 0.060762
vn 0.060762 0.997176 0.044146
vn 0.071430 0.997176 0.023209
vn 0.075106 0.997176 0.000000
vn 0.071430 0.997176 -0.023209
vn 0.060762 0.997176 -0.044146
vn 0.044146 0.997176 -0.060762
vn 0.023209 0.997176 -0.071430
vn 0.000000 0.997176 -0.075106
vn -0.023209 0.997176 -0.071430
vn -0.044146 0.997176 -0.060762
vn -0.060762 0.997176 -0.044146
vn -0.071430 0.997176 -0.023209
vn -0.075106 0.997176 -0.000000
vn 0.119356 0.992094 -0.038781
vn 0.125498 0.992094 0.000000
vn 0.119356 0.992094 0.038781
vn 0.101530 0.992094 0.073766
vn 0.073766 0.992094 0.101530
vn 0.038781 0.992094 0.119356
vn 0.000000 0.992094 0.125498
vn -0.038781 0.992094 0.119356
vn -0.073766 0.992094 0.101530
vn -0.101530 0.992094 0.073766
vn -0.119356 0.992094 0.038781
vn -0.125499 0.992094 0.000000
vn -0.119356 0.992094 -0.038781
vn -0.101530 0.992094 -0.073766
vn -0.073766 0.992094 -0.101530
vn -0.038781 0.992094 -0.119356
vn 0.000000 0.992094 -0.125498
vn 0.038781 0.992094 -0.119356
vn 0.073766 0.992094 -0.101530
vn 0.101530 0.992094 -0.073766
vn -0.308972 0.924199 0.224481
vn -0.224481 0.924199 0.308972
vn -0.118017 0.924199 0.363219
vn 0.000000 0.924199 0.381911
vn 0.118017 0.924199 0.363218
vn 0.224481 0.924199 0.308972
vn 0.308972 0.924200 0.224481
vn 0.363218 0.924200 0.118017
vn 0.381910 0.924199 0.000000
vn 0.363218 0.924200 -0.118017
vn 0.308972 0.924200 -0.224481
vn 0.224482 0.924199 -0.308972
vn 0.118017 0.924199 -0.363219
vn 0.000000 0.924199 -0.381911
vn -0.118017 0.924199 -0.363219
vn -0.224482 0.924199 -0.308973
vn -0.308972 0.924199 -0.224482
vn -0.363219 0.924199 -0.118017
vn -0.381911 0.924199 -0.000000
vn -0.363219 0.924199 0.118017
s 1
g pCylinder3
usemtl lambert4SG
f 1/21/1 2/22/2 62/105/3 43/86/4
f 2/22/2 3/23/5 61/104/6 62/105/3
f 3/23/5 4/24/7 60/103/8 61/104/6
f 4/24/7 5/25/9 59/102/10 60/103/8
f 5/25/9 6/26/11 58/101/12 59/102/10
f 6/26/11 7/27/13 57/100/14 58/101/12
f 7/27/13 8/28/15 56/99/16 57/100/14
f 8/28/15 9/29/17 55/98/18 56/99/16
f 9/29/17 10/30/19 54/97/20 55/98/18
f 10/30/19 11/31/21 53/96/22 54/97/20
f 11/31/21 12/32/23 52/95/24 53/96/22
f 12/32/23 13/33/25 51/94/26 52/95/24
f 13/33/25 14/34/27 50/93/28 51/94/26
f 14/34/27 15/35/29 49/92/30 50/93/28
f 15/35/29 16/36/31 48/91/32 49/92/30
f 16/36/31 17/37/33 47/90/34 48/91/32
f 17/37/33 18/38/35 46/89/36 47/90/34
f 18/38/35 19/39/37 45/88/38 46/89/36
f 19/39/37 20/40/39 44/87/40 45/88/38
f 20/40/39 1/41/1 43/85/4 44/87/40
s 2
f 2/2/41 1/1/42 41/83/43
f 3/3/44 2/2/41 41/83/43
f 4/4/45 3/3/44 41/83/43
f 5/5/46 4/4/45 41/83/43
f 6/6/47 5/5/46 41/83/43
f 7/7/48 6/6/47 41/83/43
f 8/8/49 7/7/48 41/83/43
f 9/9/50 8/8/49 41/83/43
f 10/10/51 9/9/50 41/83/43
f 11/11/52 10/10/51 41/83/43
f 12/12/53 11/11/52 41/83/43
f 13/13/54 12/12/53 41/83/43
f 14/14/55 13/13/54 41/83/43
f 15/15/56 14/14/55 41/83/43
f 16/16/57 15/15/56 41/83/43
f 17/17/58 16/16/57 41/83/43
f 18/18/59 17/17/58 41/83/43
f 19/19/60 18/18/59 41/83/43
f 20/20/61 19/19/60 41/83/43
f 1/1/42 20/20/61 41/83/43
s 3
f 82/125/62 63/106/63 42/84/64
f 63/106/63 64/107/65 42/84/64
f 64/107/65 65/108/66 42/84/64
f 65/108/66 66/109/67 42/84/64
f 66/109/67 67/110/68 42/84/64
f 67/110/68 68/111/69 42/84/64
f 68/111/69 69/112/70 42/84/64
f 69/112/70 70/113/71 42/84/64
f 70/113/71 71/114/72 42/84/64
f 71/114/72 72/115/73 42/84/64
f 72/115/73 73/116/74 42/84/64
f 73/116/74 74/117/75 42/84/64
f 74/117/75 75/118/76 42/84/64
f 75/118/76 76/119/77 42/84/64
f 76/119/77 77/120/78 42/84/64
f 77/120/78 78/121/79 42/84/64
f 78/121/79 79/122/80 42/84/64
f 79/122/80 80/123/81 42/84/64
f 80/123/81 81/124/82 42/84/64
f 81/124/82 82/125/62 42/84/64
s 1
f 44/87/40 43/85/4 21/62/83 40/61/84
f 45/88/38 44/87/40 40/61/84 39/60/85
f 46/89/36 45/88/38 39/60/85 38/59/86
f 47/90/34 46/89/36 38/59/86 37/58/87
f 48/91/32 47/90/34 37/58/87 36/57/88
f 49/92/30 48/91/32 36/57/88 35/56/89
f 50/93/28 49/92/30 35/56/89 34/55/90
f 51/94/26 50/93/28 34/55/90 33/54/91
f 52/95/24 51/94/26 33/54/91 32/53/92
f 53/96/22 52/95/24 32/53/92 31/52/93
f 54/97/20 53/96/22 31/52/93 30/51/94
f 55/98/18 54/97/20 30/51/94 29/50/95
f 56/99/16 55/98/18 29/50/95 28/49/96
f 57/100/14 56/99/16 28/49/96 27/48/97
f 58/101/12 57/100/14 27/48/97 26/47/98
f 59/102/10 58/101/12 26/47/98 25/46/99
f 60/103/8 59/102/10 25/46/99 24/45/100
f 61/104/6 60/103/8 24/45/100 23/44/101
f 62/105/3 61/104/6 23/44/101 22/43/102
f 43/86/4 62/105/3 22/43/102 21/42/83
s 3
f 22/80/103 23/79/104 64/107/65 63/106/63
f 23/79/104 24/78/105 65/108/66 64/107/65
f 24/78/105 25/77/106 66/109/67 65/108/66
f 25/77/106 26/76/107 67/110/68 66/109/67
f 26/76/107 27/75/108 68/111/69 67/110/68
f 27/75/108 28/74/109 69/112/70 68/111/69
f 28/74/109 29/73/110 70/113/71 69/112/70
f 29/73/110 30/72/111 71/114/72 70/113/71
f 30/72/111 31/71/112 72/115/73 71/114/72
f 31/71/112 32/70/113 73/116/74 72/115/73
f 32/70/113 33/69/114 74/117/75 73/116/74
f 33/69/114 34/68/115 75/118/76 74/117/75
f 34/68/115 35/67/116 76/119/77 75/118/76
f 35/67/116 36/66/117 77/120/78 76/119/77
f 36/66/117 37/65/118 78/121/79 77/120/78
f 37/65/118 38/64/119 79/122/80 78/121/79
f 38/64/119 39/63/120 80/123/81 79/122/80
f 39/63/120 40/82/121 81/124/82 80/123/81
f 40/82/121 21/81/122 82/125/62 81/124/82
f 21/81/122 22/80/103 63/106/63 82/125/62
