# This file uses centimeters as units for non-parametric coordinates.

mtllib wall.mtl
g default
v -6.954784 6.857346 6.091965
v 2.916400 6.857346 6.091965
v -6.954784 10.767857 6.091965
v 2.916400 10.767857 6.091965
v -6.954784 10.767857 5.908026
v 2.916400 10.767857 5.908026
v -6.954784 6.857346 5.908026
v 2.916400 6.857346 5.908026
v -6.954784 10.204617 6.091965
v -6.954784 10.204617 5.908026
v 2.916400 10.204617 5.908026
v 2.916400 10.204617 6.091965
v -6.954784 7.287631 5.908026
v -6.954784 7.287631 6.091965
v 2.916400 7.287631 6.091965
v 2.916400 7.287631 5.908026
v 2.916400 10.335847 6.185385
v -6.954784 10.335847 6.185385
v 2.916400 10.636628 6.185385
v -6.954784 10.636628 6.185385
v -6.954784 6.857346 6.284392
v 2.916400 6.857346 6.284392
v 2.916400 7.179533 6.284392
v -6.954784 7.179533 6.284392
v -6.954785 10.636628 5.819831
v 2.916400 10.636628 5.819831
v 2.916400 10.348964 5.819831
v -6.954785 10.348964 5.819831
v 2.916400 7.179533 5.726969
v -6.954784 7.179533 5.726969
v 2.916400 6.857346 5.726969
v -6.954784 6.857346 5.726969
vt 0.375000 0.000000
vt 0.625000 0.000000
vt 0.375000 0.250000
vt 0.625000 0.250000
vt 0.375000 0.500000
vt 0.625000 0.500000
vt 0.375000 0.750000
vt 0.625000 0.750000
vt 0.375000 1.000000
vt 0.625000 1.000000
vt 0.875000 0.000000
vt 0.125000 0.000000
vt 0.125000 0.250000
vt 0.375000 0.213992
vt 0.125000 0.213992
vt 0.375000 0.536008
vt 0.750000 0.375000
vt 0.875000 0.027508
vt 0.625000 0.213992
vt 0.125000 0.027508
vt 0.375000 0.722492
vt 0.375000 0.027508
vt 0.625000 0.027508
vt 0.625000 0.722492
vt 0.375000 0.213992
vt 0.625000 0.213992
vt 0.625000 0.250000
vt 0.375000 0.250000
vt 0.375000 0.000000
vt 0.625000 0.000000
vt 0.625000 0.027508
vt 0.375000 0.027508
vt 0.375000 0.500000
vt 0.625000 0.500000
vt 0.750000 0.375000
vt 0.375000 0.536008
vt 0.375000 0.722492
vt 0.625000 0.722492
vt 0.625000 0.750000
vt 0.375000 0.750000
vn 0.000000 1.000000 0.000000
vn 0.000000 1.000000 0.000000
vn 0.000000 1.000000 0.000000
vn 0.000000 1.000000 0.000000
vn 0.000000 0.000000 -1.000000
vn 0.000000 0.000000 -1.000000
vn 0.000000 0.000000 -1.000000
vn 0.000000 0.000000 -1.000000
vn 0.000000 -1.000000 0.000000
vn 0.000000 -1.000000 0.000000
vn 0.000000 -1.000000 0.000000
vn 0.000000 -1.000000 0.000000
vn 1.000000 0.000000 0.000000
vn 1.000000 0.000000 0.000000
vn 1.000000 0.000000 0.000000
vn 1.000000 0.000000 0.000000
vn -1.000000 0.000000 0.000000
vn -1.000000 0.000000 0.000000
vn -1.000000 0.000000 0.000000
vn -1.000000 0.000000 0.000000
vn -1.000000 0.000000 0.000000
vn -1.000000 0.000000 0.000000
vn 0.000000 0.000000 -1.000000
vn 0.000000 0.000000 -1.000000
vn 0.000000 0.000000 -1.000000
vn 0.000000 0.000000 -1.000000
vn 0.000000 0.000000 1.000000
vn 0.000000 0.000000 1.000000
vn 0.000000 0.000000 1.000000
vn 0.000000 0.000000 1.000000
vn -1.000000 0.000000 0.000000
vn -1.000000 0.000000 0.000000
vn 0.000000 0.000000 1.000000
vn 0.000000 0.000000 1.000000
vn 0.000000 0.000000 1.000000
vn 0.000000 0.000000 1.000000
vn 1.000000 0.000000 0.000000
vn 1.000000 0.000000 0.000000
vn 0.000000 0.000000 -1.000000
vn 0.000000 0.000000 -1.000000
vn 0.000000 0.000000 -1.000000
vn 0.000000 0.000000 -1.000000
vn 0.000000 0.000000 1.000000
vn 0.000000 0.000000 1.000000
vn 0.000000 0.000000 1.000000
vn 0.000000 0.000000 1.000000
vn 1.000000 0.000000 0.000000
vn 1.000000 0.000000 0.000000
vn 0.000000 -0.579940 0.814659
vn 0.000000 -0.579940 0.814659
vn 0.000000 -0.579940 0.814659
vn 0.000000 -0.579940 0.814659
vn 1.000000 0.000000 0.000000
vn 1.000000 0.000000 0.000000
vn 1.000000 0.000000 0.000000
vn 1.000000 0.000000 0.000000
vn 0.000000 0.579941 0.814658
vn 0.000000 0.579941 0.814658
vn 0.000000 0.579941 0.814658
vn 0.000000 0.579941 0.814658
vn -1.000000 0.000000 0.000000
vn -1.000000 0.000000 0.000000
vn -1.000000 0.000000 0.000000
vn -1.000000 0.000000 0.000000
vn 0.000000 -1.000000 0.000000
vn 0.000000 -1.000000 0.000000
vn 0.000000 -1.000000 0.000000
vn 0.000000 -1.000000 0.000000
vn 1.000000 0.000000 0.000000
vn 1.000000 0.000000 0.000000
vn 1.000000 0.000000 0.000000
vn 1.000000 0.000000 0.000000
vn 0.000000 0.871850 0.489773
vn 0.000000 0.871850 0.489773
vn 0.000000 0.871850 0.489773
vn 0.000000 0.871850 0.489773
vn -1.000000 0.000000 0.000000
vn -1.000000 0.000000 0.000000
vn -1.000000 0.000000 0.000000
vn -1.000000 0.000000 0.000000
vn 0.000000 0.557801 -0.829974
vn 0.000000 0.557801 -0.829974
vn 0.000000 0.557801 -0.829974
vn 0.000000 0.557801 -0.829974
vn 1.000000 0.000000 0.000007
vn 1.000000 0.000000 0.000007
vn 1.000000 0.000000 0.000007
vn 1.000000 0.000000 0.000007
vn 0.000000 -0.521380 -0.853325
vn 0.000000 -0.521380 -0.853325
vn 0.000000 -0.521380 -0.853325
vn 0.000000 -0.521380 -0.853325
vn -1.000000 0.000000 0.000007
vn -1.000000 0.000000 0.000007
vn -1.000000 0.000000 0.000007
vn -1.000000 0.000000 0.000007
vn 0.000000 0.858613 -0.512625
vn 0.000000 0.858613 -0.512625
vn 0.000000 0.858613 -0.512625
vn 0.000000 0.858613 -0.512625
vn 1.000000 0.000000 0.000000
vn 1.000000 0.000000 0.000000
vn 1.000000 0.000000 0.000000
vn 1.000000 0.000000 0.000000
vn 0.000000 -1.000000 0.000000
vn 0.000000 -1.000000 0.000000
vn 0.000000 -1.000000 0.000000
vn 0.000000 -1.000000 0.000000
vn -1.000000 0.000000 0.000000
vn -1.000000 0.000000 0.000000
vn -1.000000 0.000000 0.000000
vn -1.000000 0.000000 0.000000
s off
g pCube2
usemtl initialShadingGroup
f 3/3/1 4/4/2 6/6/3 5/5/4
f 10/16/5 11/17/6 16/24/7 13/21/8
f 7/7/9 8/8/10 2/10/11 1/9/12
s 1
f 15/23/13 16/18/14 11/17/15 12/19/16
s 2
f 13/20/17 14/22/18 9/14/19 10/15/20
f 10/15/20 9/14/19 3/3/21 5/13/22
s off
f 25/33/23 26/34/24 27/35/25 28/36/26
f 18/25/27 17/26/28 19/27/29 20/28/30
s 2
f 7/12/31 1/1/32 14/22/18 13/20/17
s off
f 21/29/33 22/30/34 23/31/35 24/32/36
s 1
f 2/2/37 8/11/38 16/18/14 15/23/13
s off
f 30/37/39 29/38/40 31/39/41 32/40/42
f 12/19/43 9/14/44 14/22/45 15/23/46
s 1
f 6/6/47 4/4/48 12/19/16 11/17/15
s off
f 9/14/49 12/19/50 17/26/51 18/25/52
f 12/19/53 4/4/54 19/27/55 17/26/56
f 4/4/57 3/3/58 20/28/59 19/27/60
f 3/3/61 9/14/62 18/25/63 20/28/64
f 1/1/65 2/2/66 22/30/67 21/29/68
f 2/2/69 15/23/70 23/31/71 22/30/72
f 15/23/73 14/22/74 24/32/75 23/31/76
f 14/22/77 1/1/78 21/29/79 24/32/80
f 5/5/81 6/6/82 26/34/83 25/33/84
f 6/6/85 11/17/86 27/35/87 26/34/88
f 11/17/89 10/16/90 28/36/91 27/35/92
f 10/16/93 5/5/94 25/33/95 28/36/96
f 13/21/97 16/24/98 29/38/99 30/37/100
f 16/24/101 8/8/102 31/39/103 29/38/104
f 8/8/105 7/7/106 32/40/107 31/39/108
f 7/7/109 13/21/110 30/37/111 32/40/112
